<svg width="655" height="846" xmlns="http://www.w3.org/2000/svg" preserveAspectRatio="xMidYMid meet" version="1.0">

 <g>
  <title>Layer 1</title>
  <path fill="#000000" stroke="#ffffff" id="svg_2" d="m233.2,8.19999c-2.4,1.2 -4.6,2.7 -4.9,3.5c-0.7,1.8 11.7,20.1 13.9,20.2c0.3,0.1 0.1,-1.5 -0.5,-3.4c-1.4,-4.6 -0.5,-5.2 3.3,-2.5c3.4,2.5 12.9,6 16,6c1.2,0 4.3,2.1 7,4.6c6.7,6.3 15,9 15,4.9c0,-0.8 -2,-3 -4.5,-5c-4.1,-3.4 -9.2,-10.1 -8.4,-11c0.5,-0.4 5.5,-0.8 8.9,-0.6c2,0.1 3.3,1.5 6.5,7.1c2.5,4.6 4.7,7.3 6.1,7.6c4,1 4.6,-0.5 1.7,-4.4l-2.8,-3.6l3.5,2.1c4.6,2.8 12.5,4.3 11.8,2.2c-0.3,-0.8 -1.5,-1.9 -2.8,-2.6c-2.2,-1.1 -2.1,-1.2 2.1,-2l4.4,-0.9l-7.1,-3.8c-3.9,-2 -10,-6 -13.4,-8.8c-7.9,-6.3 -10.6,-7.4 -20.5,-8.3c-4.4,-0.4 -11.4,-1.3 -15.5,-2.1c-10.1,-1.9 -14.7,-1.7 -19.8,0.8z"/>
  <path fill="#000000" stroke="#ffffff" id="svg_3" d="m209.4,18.39999c-4,2.8 -11.6,8.2 -17,12c-13.2,9.3 -31.6,24.2 -38.3,31l-5.5,5.5l4.4,9.3c10.9,23.2 25.6,49.2 45.5,80.3c12.4,19.4 13.5,21.5 22,43c18.7,47.4 25,71.1 22.6,85c-1.5,8.2 -4.4,17.3 -8.8,26.7c-4.2,9 -1.7,8.4 -24.3,6.7c-22.5,-1.6 -39.4,-5.7 -45.4,-11c-8.9,-7.7 -3.5,-18.2 15.6,-30.6c8.5,-5.5 21.2,-11.5 29.1,-13.8c3.2,-0.9 5.7,-1.9 5.4,-2.1c-0.7,-0.7 -21.7,3.6 -30.7,6.3c-17,5.1 -30.9,13.1 -40.4,23.4c-9.1,9.8 -10.6,18.8 -5.1,30.6c4.9,10.7 16,18.1 34.5,23.1c8.6,2.3 11.4,2.5 29,2.6c10.7,0.1 24,-0.3 29.5,-0.8l10,-0.9l-11,-1.3c-29.8,-3.5 -48.7,-7.8 -65.9,-15c-10.7,-4.5 -12,-6 -2.3,-2.7c3.9,1.3 13.7,3.6 21.7,5.1c13.8,2.5 16.2,2.6 48.5,2.6c31.4,0.1 58.7,-1.3 66,-3.2c2.8,-0.8 3,-1.2 5.1,-12.8c4.6,-24 5.8,-37.8 5.9,-62.4c0,-25 -0.6,-31 -3.1,-31c-1.4,0 -25.4,-5.6 -34.6,-8.1c-3,-0.8 -4.5,-2.2 -8.3,-7.9c-8.8,-13.3 -18,-36.8 -22,-56.2c-1.5,-7.4 -2.1,-8.7 -4.1,-9.2c-3.8,-1 -12,-11.1 -24.9,-30.6c-14.3,-21.8 -19.5,-30.3 -19.5,-32c0,-3.7 17.9,-23.8 32,-36c4.1,-3.6 7.6,-7 7.7,-7.5c0.3,-0.9 -14.3,-22.2 -15.6,-22.9c-0.3,-0.1 -3.8,2 -7.7,4.8z"/>
  <path fill="#000000" stroke="#ffffff" id="svg_4" d="m315,42.69999c0,0.2 2.5,1.6 5.6,3c4.6,2.1 6.6,2.5 11,2c9.3,-1 9.9,-2.5 0.9,-2.6c-4.4,0 -10.1,-0.6 -12.7,-1.4c-2.7,-0.8 -4.8,-1.3 -4.8,-1z"/>
  <path fill="#000000" stroke="#ffffff" id="svg_5" d="m286.2,47.49999c-6,3.1 -9.5,7.2 -12.2,14.3c-3.2,8.5 -3.5,15.8 -1,27.3c2.8,12.9 2.8,23.7 0,34.3c-1.1,4.4 -2,8.1 -2,8.2c0,0.2 4.4,3.8 9.8,8.1c5.3,4.2 12.9,10.8 16.8,14.5l7.1,6.8l1.6,-9.7c2,-12.2 3.5,-17.3 4.9,-17.3c0.6,0 3.6,1.6 6.8,3.5c7.2,4.4 11.1,5.3 13.3,3c1,-0.9 1.7,-2.6 1.7,-3.9c0,-1.2 0.7,-3.1 1.5,-4.2c0.8,-1 1.5,-2.7 1.5,-3.7c0,-1 0.7,-2 1.5,-2.3c0.9,-0.4 1.5,-1.9 1.5,-3.5c0,-2.8 0.2,-2.9 5,-2.9c2.8,0 5,-0.2 5,-0.5c0,-0.3 -1.3,-4.5 -3,-9.5c-3.1,-9.5 -3.8,-14 -1.9,-14c0.8,0 0.9,-2.9 0.4,-10.3l-0.6,-10.2l3.3,-1.8c9.8,-5.2 9.4,-18.8 -0.6,-22.6c-3.3,-1.3 -4.4,-1.2 -9,0.2c-7.7,2.5 -11.6,2.1 -21.9,-1.9c-12.9,-5.1 -22.1,-5.6 -29.5,-1.9z"/>
  <path fill="#000000" stroke="#ffffff" id="svg_6" d="m389.40001,67.39999c-1.7,0.8 -4.1,2.7 -5.3,4.2c-1.9,2.4 -2.2,3.7 -1.7,7.3c0.5,3.7 0.2,4.8 -2,7.4c-3.1,3.6 -7.4,13.1 -7.4,16.1c0,1.3 -2.5,4.5 -6.7,8.4l-6.6,6.2l2,2.3c1.8,1.9 2,3.3 1.8,10.2c-0.1,4.4 -0.5,8.8 -0.9,9.7c-1.2,2.6 2.6,5.6 8.1,6.3c2.6,0.4 6.8,1 9.3,1.4l4.5,0.6l0.3,5c0.5,7.4 -4.6,24.6 -8,27.2c-0.7,0.5 -6.8,2.8 -13.5,5.2c-6.6,2.3 -15.2,5.6 -19,7.4l-6.8,3.2l5.7,0.3c4.2,0.2 12.4,-1.3 31.5,-5.7c14.2,-3.3 28.8,-6.3 32.6,-6.6l6.7,-0.7l0,-8.2c0,-10.2 1.6,-20.2 3.9,-24.1c1.3,-2.2 3.3,-3.6 8.2,-5.3c3.5,-1.3 6.5,-2.7 6.7,-3.1c0.1,-0.4 2.4,0.3 5.1,1.6c4.3,2.2 5.3,2.3 8.9,1.3c8,-2.1 14.8,-10.6 15.9,-19.7c0.4,-3.9 0.1,-6 -1.7,-9.9l-2.3,-4.9l-0.9,4.5c-1.6,7.3 -2.3,6.5 -2.3,-2.5c0,-5.4 -0.4,-8.8 -1.2,-9.7c-1,-1 -1.3,-0.3 -1.3,3.1c0,6 -2.3,10.1 -8,14.5c-6.2,4.7 -9,8.6 -10.6,14.5c-0.8,3 -1.3,3.7 -1.3,2.1c-0.1,-4.1 3.6,-10.8 9.1,-16.9c8.4,-9.2 9.7,-15.4 5.3,-24.9c-2.7,-5.9 -3.8,-6.8 -2.4,-2c1.3,4.8 1.1,15.4 -0.5,19.1c-0.7,1.8 -3.6,5.2 -6.3,7.5c-5.4,4.4 -7.8,8.5 -9.3,15.5c-0.9,4.1 -0.9,4 -0.6,-1.4c0.5,-6.4 3.1,-12.3 8.1,-17.8c4.4,-4.9 5.5,-7.9 5.5,-15.3c0,-8.7 -2.8,-14 -9.6,-18.4c-6.9,-4.4 -7.6,-4.3 -2.6,0.5c4.5,4.4 6.2,9.1 6.1,16.1l-0.1,4.5l-0.9,-4c-1.4,-5.7 -6.2,-12.7 -11.6,-16.5c-6,-4.4 -14.8,-7.9 -19.8,-8.1l-4,-0.1l4.3,-1.5c3.4,-1.2 5.7,-1.3 10.8,-0.6c7.9,1.2 7.3,0.4 -2.8,-3.6c-8.5,-3.4 -16.9,-4.1 -22.4,-1.7zm24.4,30c3,1.5 5.1,3 4.8,3.3c-0.3,0.3 -4,-1.1 -8.1,-3.1c-7.4,-3.7 -12.1,-8.1 -16.8,-15.8c-1.4,-2.3 0.6,-0.7 6.4,4.8c4.6,4.5 10.8,9.3 13.7,10.8zm10.6,-1.4c3.7,4.4 4.9,9.7 3.5,15.9c-0.6,2.8 -1.2,5.1 -1.5,5.1c-0.2,0 -0.1,-2.6 0.2,-5.8c0.7,-6.7 -0.7,-11 -5.7,-16.7c-2.5,-2.8 -2.8,-3.5 -1.3,-2.7c1.2,0.6 3.3,2.5 4.8,4.2z"/>
  <path fill="#000000" stroke="#ffffff" id="svg_7" d="m213,100.39999c0,2.1 3.5,5.1 8.4,7.5c2.3,1 7.3,4 11.1,6.6c7,4.6 7,4.7 3.1,4.1c-2.1,-0.3 -5.5,-1.6 -7.5,-2.9c-10.2,-6.7 -10,-6.9 -3.2,3.1c3.8,5.5 8.7,11.2 12,13.9l5.6,4.6l6.3,18.6c6.4,19 15.6,39.7 21.3,47.6c2.9,4 4,4.7 12.3,7.4c15.3,5 55.5,15.6 82.1,21.7l19,4.4l-9.1,-0.3l-9.1,-0.2l4.2,5.5c2.4,3 7.5,9 11.4,13.3c3.9,4.2 7.1,8 7.1,8.4c0,1.2 -9.4,-0.8 -12.5,-2.7c-2.5,-1.6 -17.3,-18.9 -20.5,-24c-0.5,-0.8 -24.8,-6.6 -34.6,-8.3l-3.1,-0.6l0.5,21.9c0.5,23.2 -0.4,34.8 -4,50.5c-2.1,9.4 -7,23.3 -9.6,27.3l-1.5,2.3l6.4,-0.6c11,-1.2 43.1,-6.5 49,-8.1l5.6,-1.6l-1.3,-3.6c-1.4,-3.9 -1.8,-16 -0.7,-20c0.5,-2.1 1,-2.3 4.1,-1.7c2.4,0.4 3.8,0.2 4.4,-0.7c0.7,-1 1,-1 1.8,0.4c1.5,2.5 6.4,3.2 9.9,1.3c2.5,-1.3 4.4,-4.2 9.6,-14.8c8.4,-17.3 8.5,-17.7 4.6,-22.6c-3.7,-4.6 -3.8,-5.2 -1,-7.7c5.1,-4.5 17.3,-19.3 19.5,-23.6c3.3,-6.5 3.8,-11.2 2.1,-18.8c-0.9,-3.6 -1.9,-10.2 -2.2,-14.8c-0.4,-4.5 -1.2,-8.2 -1.7,-8.2c-0.6,0 -6.1,1.4 -12.4,3.2c-11.1,3.1 -13.4,4.7 -7.1,4.9c1.8,0 5,0.6 7.2,1.4c3.7,1.2 3.2,1.3 -9,1.4c-12.7,0.1 -35.5,3.3 -35.5,5.1c0,0.4 2.4,1.2 5.3,1.7c5.2,1 5.2,1 1.2,1.2c-8.8,0.2 -67.3,-10.4 -69.5,-12.6c-1.3,-1.4 -1.3,-1.4 0.8,-0.4c1.2,0.7 2.2,0.9 2.2,0.5c0,-0.4 -1.6,-5.2 -3.6,-10.8c-3.9,-10.8 -10.7,-24.9 -17.7,-36.8c-2.3,-4 -4.6,-8.1 -5,-9.1c-0.7,-1.8 -2.7,-2.4 -2.7,-0.7c0,0.6 -1.2,2.9 -2.7,5.1l-2.6,4l-5.2,-9.9c-5.8,-11.1 -11.3,-18.7 -15.3,-21.4c-1.5,-1 -6.3,-3.2 -10.7,-4.9c-4.4,-1.7 -10.1,-4.2 -12.7,-5.5c-3.8,-1.9 -4.8,-2.1 -4.8,-1zm159,166.3c6.3,2.5 11.7,4.7 11.9,4.9c0.9,0.8 -9.6,-0.8 -14.4,-2.3c-5.3,-1.7 -16.5,-7 -16.5,-7.9c0,-1.2 8.2,1.1 19,5.3zm-9.5,6.6c6.1,2.5 11.9,4.8 12.9,5.1c3.9,1.3 0.8,1.4 -5.5,0.2c-7.5,-1.4 -16.6,-5.5 -19.5,-8.8c-1.4,-1.5 -1.5,-2 -0.4,-1.6c0.8,0.4 6.5,2.6 12.5,5.1zm2.3,11.3c8.1,2.6 9.8,5 2.8,4.1c-5.5,-0.8 -9.6,-2.7 -15.3,-7.4c-5.9,-4.7 -5.4,-5.9 0.8,-2c2.8,1.7 8.1,4.1 11.7,5.3z"/>
  <path fill="#000000" stroke="#ffffff" id="svg_8" d="m497.50001,142.39999c28.9,9.9 48,21.4 68.9,41.6c22.9,22.1 36.8,44.3 47,75c12.2,36.7 13.5,72.6 4,109.7c-1.9,7.4 -4.8,16.4 -6.4,20c-1.7,3.6 -3,6.8 -3,7.1c0,0.3 3,-4.1 6.7,-9.9c17.2,-27 26.7,-55 29.2,-86.1c2.8,-33.9 -6.7,-67.9 -26.8,-96.3c-7.5,-10.6 -24.5,-27.5 -35.6,-35.4c-23,-16.2 -53.5,-26.5 -85,-28.6l-9,-0.6l10,3.5z"/>
  <path fill="#000000" stroke="#ffffff" id="svg_9" d="m308,157.19999c0,6 6.6,30.8 8.7,32.5c0.8,0.6 4.2,1.6 7.6,2.2c5.9,1 6.4,1 12.7,-2c7.7,-3.7 19.5,-7.9 22.4,-8c1.4,0 0.6,-0.7 -2.4,-2.1c-5.5,-2.4 -33.4,-12.8 -33.7,-12.4c-0.1,0.1 1.1,2.2 2.8,4.6c3.8,5.6 8.6,15 6.7,13c-0.8,-0.8 -6.4,-7.4 -12.3,-14.5c-5.9,-7.2 -11.2,-13.4 -11.7,-14c-0.5,-0.5 -0.8,-0.3 -0.8,0.7z"/>
  <path fill="#000000" stroke="#ffffff" id="svg_10" d="m462.00001,202.49999c0,0.4 2.2,3.2 5,6.2c6.6,7.5 13.7,21.7 15.6,31.6c1.5,7.1 1.5,8.4 0,14.9c-2.1,9.4 -6.5,16.7 -15.1,25.3c-19.3,19.5 -55.1,36.3 -115.5,54.4c-29.3,8.7 -71.8,17.4 -98.5,20c-5.5,0.6 -18.8,1.2 -29.7,1.3c-10.8,0.2 -19.1,0.6 -18.5,1c0.7,0.4 2.5,0.8 4.1,0.8c2.6,0 2.8,0.2 2.3,3c-1.1,5.4 -12.7,31.2 -28.6,63.6c-24.5,49.8 -32.9,63.9 -60.9,102.4c-6.7,9.1 -23.2,33.1 -36.9,53.4c-13.6,20.3 -28.3,41.7 -32.6,47.4c-4.3,5.8 -8.6,12.8 -9.6,15.6c-1,2.8 -3.6,7.8 -5.7,11.1c-2.1,3.3 -6.4,10.8 -9.4,16.5c-4.1,7.7 -7.1,12.1 -11.8,16.6c-9.3,9.2 -8.2,11.5 4.4,9.7c13.3,-1.9 25.9,-9.6 29.5,-17.9c1.1,-2.6 2.6,-4.5 4.1,-4.9c1.3,-0.4 3.4,-1.8 4.8,-3l2.5,-2.4l8.4,2c4.6,1.1 9.1,2.3 9.9,2.8c1.3,0.7 2.4,-0.5 5.5,-6.2c7.9,-14.5 51.4,-78.8 92.2,-136.2c10.9,-15.4 24,-33.9 29,-41c5,-7.2 14.1,-19.8 20.1,-28c6.1,-8.3 14.4,-20 18.6,-26c4.1,-6.1 10.9,-15.7 14.9,-21.5c4.1,-5.8 12.1,-17.6 17.9,-26.2c5.7,-8.6 10.6,-15.6 10.7,-15.4c0.9,0.9 -2,20.2 -3.3,22.9c-1,1.7 -7,9.6 -13.5,17.4c-40.8,48.9 -47.7,60.3 -48.6,79.3c-0.4,8 -0.1,10.7 2,17.4l2.4,7.9l2.9,-5.7c4.5,-9 17.4,-25.5 25.5,-32.7c19,-16.8 39.1,-29.5 74.7,-47c34.3,-17 43.2,-22.1 50.5,-29.4c8.4,-8.4 10.2,-12.8 10.2,-25c-0.1,-5.5 -0.6,-11.2 -1.2,-12.6l-1.1,-2.6l-8.4,1.8c-15.1,3.4 -38.1,6.8 -53.6,7.9c-15.4,1.2 -21.8,0.9 -10,-0.4c99,-10.8 170,-44 184.3,-86.5c3,-8.7 3.4,-21.3 1,-30.6c-1.7,-6.5 -7.8,-19.2 -12.8,-26.4c-4.6,-6.7 -27.7,-28.9 -27.7,-26.6z"/>
  <path fill="#000000" stroke="#ffffff" id="svg_11" d="m507.10001,222.59999c10.5,11.5 18.5,23.2 24.9,36.8c9.7,20.4 12.5,33.5 11.7,56.1c-0.5,16.7 -1.9,23.2 -7.6,36.5c-7.5,17.5 -19.9,31.8 -33.3,38.4c-9.5,4.8 -20.2,5.9 -25.8,2.8c-12.6,-6.9 -9.4,-25.4 6,-35.5c4,-2.6 4.2,-2.9 1.5,-2.3c-7.6,1.8 -19.1,8.5 -25.8,15.3c-15.5,15.5 -19.5,36 -10.7,54c11.3,22.9 39,29.7 66.7,16.4c22.8,-11 40.6,-29.1 52.3,-53.6c8.8,-18.4 12.3,-33.5 12.3,-53c-0.1,-18.3 -4.6,-37.3 -12.9,-53.6c-5.1,-10.3 -15.2,-23.8 -24.9,-33.4c-9.4,-9.4 -13.4,-12.5 -31,-24.1l-7,-4.6l3.6,3.8z"/>
  <path fill="#000000" stroke="#ffffff" id="svg_12" d="m153.5,253.69999c-38.6,3.2 -72.3,17.3 -94.2,39.5c-18.8,19.1 -29.9,40.4 -33.3,63.7c-1.9,12.8 -0.8,32.5 2.4,43.4c6.8,23.1 22.4,44.1 40.5,54.7c25.1,14.6 55.4,12.7 74.1,-4.7c8.7,-8 13.2,-17.5 13.8,-28.9c1.3,-23.8 -13.8,-42.9 -37.7,-48c-9.6,-2 -10.3,-1.7 -3.5,1.6c9.6,4.6 16.4,13.4 16.4,21c0,7.9 -7.1,15.9 -16,18c-7.6,1.8 -18.6,0.8 -25.6,-2.4c-11.5,-5.3 -22.8,-20.5 -26.5,-35.6c-2.2,-8.8 -1.7,-27 0.9,-36.3c5.3,-18.7 18.3,-38 35.1,-52.4c17.1,-14.6 34.9,-24.1 58.6,-31.4c8.9,-2.8 8.9,-2.8 4,-2.7c-2.7,0.1 -6.8,0.3 -9,0.5z"/>
  <path fill="#000000" stroke="#ffffff" id="svg_13" d="m400.80001,402.69999c-2.6,4.4 -13.5,16.2 -19.9,21.6c-8.7,7.4 -23.3,17.3 -43.9,29.8c-52,31.7 -75.6,49.5 -91,68.6c-10.4,12.9 -15.9,26.5 -16,39.3c0,3 0.7,12.9 1.6,21.9c2.3,22.2 1.2,34.4 -4.6,52.6c-2.3,7.2 -4.6,16.8 -5.1,21.5c-0.5,4.7 -1.2,10.1 -1.5,12c-1,5.3 -5.2,12.6 -9.1,15.3l-3.5,2.5l6.3,-0.5c12.6,-0.9 18,-4.5 24.3,-15.8c3.3,-6 8.8,-10.4 12.8,-10.5c3.3,0 4.8,5.2 4.8,16.2c0,11.8 1.3,12.1 2.9,0.6c1.1,-7.8 1.9,-10.6 6.6,-21.7c4,-9.5 3.5,-11.3 -5.9,-22.6c-5.4,-6.4 -6,-12.4 -2.1,-23.3c1.5,-4.2 3.2,-8.3 3.7,-8.9c0.7,-0.9 0,-2.7 -2.4,-6c-7.9,-11.2 -12.6,-22.8 -13.5,-33.4c-0.7,-7.9 1.5,-19 5.2,-26.4c1.4,-2.8 2.3,-4.1 2,-3c-0.4,1.1 -1.1,5.7 -1.6,10.2c-2.2,17.8 5.5,38.9 20.5,55.8l4.4,5l-1.8,-7.1c-2.9,-11.2 -4.3,-25.9 -3.5,-36.2c0.8,-11.1 2.3,-16.6 2.4,-8.7c0.1,6.3 2.7,22.3 4.8,29.5c3.2,10.9 10.4,26 17.8,37.4l1.9,2.8l-3.5,-0.7c-1.8,-0.4 -7,-2.5 -11.3,-4.6c-4.3,-2.2 -8.1,-3.8 -8.3,-3.5c-0.2,0.2 0.1,12 0.6,26.2c0.6,14.3 1.1,29.8 1.1,34.6l0,8.7l-6.2,0.3l-6.3,0.3l0.3,3.7l0.4,3.8l-7.7,0c-8.4,0 -8.4,0 -5.9,-6.4c0.5,-1.4 -0.4,-1.6 -6.1,-1.6c-5.9,0 -6.9,0.3 -8.6,2.4c-1,1.3 -4,3.1 -6.6,4c-4.6,1.6 -29.3,3.5 -29.3,2.3c0,-0.4 1.7,-2.2 3.7,-4.1c2.1,-1.9 3.6,-3.6 3.3,-3.8c-0.3,-0.2 -10.6,-0.1 -23,0.3c-80.2,2.7 -124.4,5.5 -133,8.5c-5.3,1.9 11,3.8 44,5.4c54,2.4 122.3,3.2 243.4,2.7c116,-0.5 149.7,-1.1 192.5,-3.7c18.9,-1.1 33.5,-3 32.4,-4.1c-1.3,-1.2 -21.4,-3.8 -39.3,-4.9c-26.4,-1.7 -67.8,-2.9 -120.5,-3.6l-49,-0.7l3.4,3.7l3.5,3.6l-4.5,-0.1c-2.4,-0.1 -3.6,-0.3 -2.6,-0.6c3.3,-0.9 1.7,-2.3 -7.7,-6.8c-5.9,-2.9 -11.4,-6.5 -15,-9.8l-5.5,-5.2l-2.6,-20c-1.4,-11 -2.8,-21.7 -3.1,-23.8c-0.5,-3.5 -1.1,-4 -7.2,-7.2c-11.1,-5.6 -11.5,-6.7 -1.2,-3.3c8.7,2.9 10.6,3.2 23,3.2c15.2,0 21.7,-1.6 31.5,-7.5l5.4,-3.3l-9,-4.2c-22.4,-10.7 -40.3,-27.7 -52.3,-49.5c-8.8,-16 -14,-40.3 -12,-56.1l0.7,-6.3l1.3,8c1.6,10.3 8,29.3 13.2,38.9c8.5,15.7 15.4,24.9 28.6,38.1c9.9,9.8 15.2,14.2 21.6,18c16,9.3 26.8,12.6 41.5,12.6c15.2,0 26.6,-4.6 36.6,-14.7l5.3,-5.4l-7.1,0c-8.5,0 -25.1,-3 -34.9,-6.4c-15.4,-5.2 -30.3,-14.7 -42,-26.8c-8.9,-9.2 -13.8,-16 -20.6,-28.8c-5.7,-10.6 -7.2,-15.5 -2.4,-7.7c9,14.7 24.2,31.2 39.3,42.6c10.4,7.9 28.8,16.5 41.8,19.7c20.9,5.1 40.6,3.4 57,-4.8c7.3,-3.7 18.4,-12.5 22.1,-17.6c1.6,-2 3.8,-4.9 5.1,-6.3l2.4,-2.6l-10.3,-0.6c-13.6,-0.8 -25.3,-3.8 -36.3,-9.2c-17.5,-8.5 -34,-23.5 -47.5,-43l-5.4,-8l7.9,8c27.2,27.3 64.4,45.6 93,45.9c9.3,0.1 10.5,-0.1 16.8,-3.1c8.1,-3.8 15,-10.6 19.4,-18.9c3.3,-6.2 6.3,-15.3 6.3,-18.9c0,-2.2 0,-2.2 -5.4,0.6c-15.1,7.5 -40.2,5.8 -65.3,-4.4c-31.2,-12.8 -60.6,-38.5 -73.3,-64.2c-4.3,-8.6 -6.6,-19.7 -5.7,-26.7c0.3,-2.1 0.4,-3.8 0.3,-3.8c-0.1,0 -0.9,1.2 -1.8,2.7zm-33.3,93.3c18.3,26.8 41.9,49.5 64,61.2c3.8,2.1 6.7,3.8 6.3,3.8c-2,0 -15.3,-5.9 -23.5,-10.6c-11.7,-6.6 -19.1,-12.3 -27.9,-21.6c-12.4,-13.1 -20.4,-25.6 -27.3,-42.9c-5,-12.4 -5.3,-14.8 -0.8,-5.4c1.9,3.9 6,10.8 9.2,15.5z"/>
  <path fill="#000000" stroke="#ffffff" id="svg_14" d="m499.00001,564.2c-6.6,6.1 -14.7,11.6 -22.4,14.9c-3,1.3 -5.6,2.6 -5.5,2.9c0,0.3 5,4.5 11.2,9.5c21.5,17.3 36.3,33.4 55.5,60.4c14.9,21.1 23.1,28.5 44.8,40.9c16.3,9.4 18.8,9.1 15.1,-1.9c-1.4,-4.1 -2.8,-9 -3.2,-10.9c-1,-5.2 -3.1,-7.8 -8.1,-10.2c-7.4,-3.4 -12.1,-12.5 -8.6,-16.8c1.6,-2 2.1,-2.1 5.8,-1.1c2.3,0.6 5.7,2.2 7.6,3.5l3.5,2.3l1,-2.8c1.1,-2.8 1,-2.9 -7.1,-6.8c-6.4,-3.1 -8.8,-4.9 -11.7,-8.9c-6.3,-8.4 -13.5,-10 -21.3,-4.7l-3.4,2.3l-4,-4.2c-6.2,-6.3 -12.2,-16.4 -23.5,-39.4c-5.8,-11.6 -12.5,-24 -15.1,-27.6c-2.6,-3.6 -4.8,-6.6 -4.9,-6.6c-0.1,0.1 -2.7,2.4 -5.7,5.2z"/>
  <path fill="#000000" stroke="#ffffff" id="svg_15" d="m171,733.8c0.8,0.5 7.8,2.4 15.5,4.1c17.2,4 41,9.7 79,18.9c16,3.9 31.7,7.6 35,8.3c6,1.2 6.3,1.1 47,-8.9c22.6,-5.5 52.1,-12.6 65.7,-15.9c13.6,-3.2 24.8,-6.2 24.8,-6.6c0,-0.4 -2.4,-0.4 -5.2,0c-6.8,1 -256.3,1 -260.3,0c-1.8,-0.4 -2.4,-0.4 -1.5,0.1z"/>
  <path fill="#000000" stroke="#ffffff" id="svg_16" d="m199.1,807.6l-0.1,23.2l3.1,0.6c7.5,1.5 7.2,1.9 6.4,-10.9c-0.4,-6.3 -0.3,-11.5 0.2,-11.4c0.4,0 4.2,3.9 8.3,8.6c4.1,4.8 8.9,10.2 10.7,12.2l3.2,3.6l1,-2.8c0.7,-1.7 1.1,-11.1 1.1,-23.3l0,-20.4l-4.5,0l-4.5,0l0,11.7l0,11.8l-12.4,-13l-12.5,-13l0,23.1z"/>
  <path fill="#000000" stroke="#ffffff" id="svg_17" d="m411.00001,808.7l0,22.8l4.5,0.2l4.5,0.1l0,-11.9l0,-12l3.3,3.8c1.7,2.1 3.7,4.3 4.2,5c0.6,0.6 4.4,4.6 8.5,8.8l7.5,7.7l0.6,-10.9c0.4,-5.9 0.7,-16.3 0.8,-23.1l0.1,-12.2l-4.5,0c-2.9,0 -4.5,0.5 -4.6,1.2c-0.1,0.7 -0.4,5.9 -0.8,11.5l-0.6,10.1l-10,-11c-5.5,-6 -10.8,-11.4 -11.7,-11.9c-1.7,-0.9 -1.8,0.4 -1.8,21.8z"/>
  <path fill="#000000" stroke="#ffffff" id="svg_18" d="m105.7,788.4c-0.4,1 -0.7,10.9 -0.7,22.1c0,15.5 0.3,20.4 1.3,20.8c2.2,0.8 15.5,-0.2 19.9,-1.5c2.6,-0.7 6.2,-3.1 8.9,-5.8c3.7,-3.6 4.9,-5.6 5.8,-9.7c2,-9.7 -3.4,-20.4 -12.6,-24.5c-2.4,-1 -7.9,-2.1 -13,-2.4c-7.9,-0.6 -9.1,-0.5 -9.6,1zm21.8,12c7.9,8.4 3,21.6 -8.1,21.6l-4.4,0l0,-12.5l0,-12.5l4.6,0c4,0 5.1,0.5 7.9,3.4z"/>
  <path fill="#000000" stroke="#ffffff" id="svg_19" d="m165,789.2c-6.3,15.8 -16,40.7 -16,41.4c0,0.6 2.4,1 5.3,0.9c5.2,0 5.2,0 6.1,-3.8l1,-3.7l8.2,0l8.2,0l1.3,3.2c1.6,4.2 2.5,4.8 7.3,4.8c3.7,0 3.8,-0.1 3.3,-2.9c-0.4,-1.7 -2.5,-7 -4.8,-11.8c-2.2,-4.8 -4.9,-10.9 -6,-13.5c-1,-2.7 -3.2,-7.5 -4.9,-10.8c-2.5,-4.9 -3.5,-6 -5.5,-6c-1.7,0 -2.9,0.8 -3.5,2.2zm6.9,21l2,4.8l-4.4,0c-2.5,0 -4.5,-0.3 -4.5,-0.6c0,-2 3.6,-10.2 4.2,-9.6c0.4,0.4 1.6,2.8 2.7,5.4z"/>
  <path fill="#000000" stroke="#ffffff" id="svg_20" d="m259,788.1c-14.4,5.8 -18.5,25.6 -7.8,37.1c7.7,8.1 20.8,8.5 30.6,1l2.4,-1.8l-3.7,-2.8l-3.7,-2.9l-4.5,2.3c-4,2 -5,2.1 -8.4,1.1c-4.3,-1.3 -8.3,-5.9 -9.4,-10.8c-1,-5.1 2.5,-12 7.2,-13.9c4.2,-1.8 9.8,-1.3 12.1,1c1.4,1.3 1.9,1.2 4.3,-0.9c1.6,-1.2 3.4,-2.5 4.1,-2.8c1.7,-0.7 -1.2,-3.2 -6.7,-5.8c-4.3,-2 -12.4,-2.4 -16.5,-0.8z"/>
  <path fill="#000000" stroke="#ffffff" id="svg_21" d="m292,809l0,22l8.8,0c4.8,0 10.4,0.3 12.5,0.6l3.7,0.7l0,-4.7l0,-4.6l-7.5,0l-7.5,0l0,-4.5c0,-4.4 0.1,-4.5 3.3,-4.7c1.7,-0.1 3.9,-0.2 4.7,-0.4c0.8,-0.1 2.3,-0.2 3.3,-0.3c1.3,-0.1 1.7,-1 1.7,-4.2l0,-4l-6.2,0.2l-6.3,0.3l0,-4.5l0,-4.4l7.8,-0.3l7.7,-0.3l0,-4.4l0,-4.5l-13,0l-13,0l0,22z"/>
  <path fill="#000000" stroke="#ffffff" id="svg_22" d="m337.00001,787.7c-2.9,1.1 -6.9,5.6 -7.5,8.4c-1.4,6.2 2.6,12.3 10.8,16.4c4.8,2.4 6.9,6.4 4.7,8.9c-1.7,2.2 -5.2,2 -8.3,-0.4c-3.3,-2.6 -3.7,-2.5 -6.6,1.2l-2.5,3.1l3,2.4c7.1,5.7 15.5,5.5 21.6,-0.7c3.1,-3.1 3.8,-4.5 3.8,-7.7c0,-5.7 -3.4,-10.2 -10.8,-14.3c-5.4,-2.9 -6.3,-3.8 -6,-6c0.4,-3.2 4.5,-3.9 8.4,-1.3c2.3,1.5 2.8,1.5 3.2,0.3c0.3,-0.7 1.5,-2.4 2.8,-3.7l2.3,-2.3l-3.2,-2.2c-3.1,-2.2 -12.4,-3.5 -15.7,-2.1z"/>
  <path fill="#000000" stroke="#ffffff" id="svg_23" d="m363.00001,787.9c0,0.5 3,6 6.8,12.3l6.7,11.3l0.5,10l0.5,10l4.5,0l4.5,0l0.5,-10.6l0.5,-10.5l6.8,-11.3c3.7,-6.2 6.7,-11.4 6.7,-11.7c0,-0.2 -2.2,-0.4 -4.9,-0.4l-4.8,0l-4.4,7.5c-2.4,4.1 -4.6,7.5 -4.9,7.5c-0.3,-0.1 -2.4,-3.4 -4.8,-7.5l-4.4,-7.5l-4.9,0c-2.7,0 -4.9,0.4 -4.9,0.9z"/>
  <path fill="#000000" stroke="#ffffff" id="svg_24" d="m470.80001,787.9c-4.9,1.6 -8.6,5.1 -11.4,10.6c-2.3,4.7 -2.6,6.4 -2.2,12.4c0.3,5.8 0.9,7.8 3.4,11.3c4,5.7 10.4,9.2 16.9,9.2c5.7,0 13.4,-2.6 15.9,-5.3c1.5,-1.7 1.4,-2 -2.4,-4.5c-3.8,-2.5 -4.2,-2.6 -6.3,-1.1c-1.2,0.8 -4.1,1.5 -6.5,1.5c-8.5,0 -14.4,-9.9 -10.8,-18.3c2.7,-6.6 10.9,-9.5 16.9,-6l3.3,2l3.3,-2.8c1.8,-1.5 3,-3.2 2.6,-3.8c-2.4,-4 -16.5,-7.2 -22.7,-5.2z"/>
  <path stroke="#ffffff" id="svg_28" d="m-162.5,-180c-278,86 -260,206 -259.5,206" opacity="NaN" fill="#ffffff"/>
 </g>
</svg>